<svg width="25" height="24" viewBox="0 0 25 24" fill="none" xmlns="http://www.w3.org/2000/svg">
<path fill-rule="evenodd" clip-rule="evenodd" d="M3.73616 12.467C3.57916 12.176 3.57916 11.823 3.73616 11.532C5.62816 8.033 9.12316 5 12.6182 5C16.1132 5 19.6082 8.033 21.5002 11.533C21.6572 11.824 21.6572 12.177 21.5002 12.468C19.6082 15.967 16.1132 19 12.6182 19C9.12316 19 5.62816 15.967 3.73616 12.467Z" stroke="white" stroke-width="1.5" stroke-linecap="round" stroke-linejoin="round"/>
<path d="M14.7395 9.87868C15.9111 11.0502 15.9111 12.9497 14.7395 14.1213C13.5679 15.2929 11.6684 15.2929 10.4968 14.1213C9.32527 12.9497 9.32527 11.0502 10.4968 9.87868C11.6684 8.70711 13.5679 8.70711 14.7395 9.87868" stroke="white" stroke-width="1.4286" stroke-linecap="round" stroke-linejoin="round"/>
</svg>
