<svg width="65" height="64" viewBox="0 0 65 64" fill="none" xmlns="http://www.w3.org/2000/svg">
<path d="M22.263 56.1492C18.623 50.9545 16.4817 44.6345 16.4817 37.8105C16.4817 28.9732 23.6417 21.8105 32.4737 21.8105C41.3057 21.8105 48.4657 28.9732 48.4657 37.8105" stroke="white" stroke-width="2.5" stroke-linecap="round" stroke-linejoin="round"/>
<path d="M49.3326 53.7679C49.0446 53.7839 48.7619 53.8105 48.4712 53.8105C39.6392 53.8105 32.4792 46.6479 32.4792 37.8105" stroke="white" stroke-width="2.5" stroke-linecap="round" stroke-linejoin="round"/>
<path d="M35.8018 58.1892C29.0071 53.9519 24.4818 46.4105 24.4818 37.8105C24.4818 33.3919 28.0631 29.8105 32.4791 29.8105C36.8951 29.8105 40.4764 33.3919 40.4764 37.8105C40.4764 42.2292 44.0578 45.8105 48.4738 45.8105C52.8898 45.8105 56.4711 42.2292 56.4711 37.8105C56.4711 24.5545 45.7298 13.8105 32.4818 13.8105C19.2338 13.8105 8.49243 24.5545 8.49243 37.8105C8.49243 40.7652 8.8231 43.6425 9.4311 46.4159" stroke="white" stroke-width="2.5" stroke-linecap="round" stroke-linejoin="round"/>
<path d="M54.8044 15.9279C49.3511 9.73321 41.3778 5.81055 32.4764 5.81055C23.5751 5.81055 15.6018 9.73321 10.1484 15.9279" stroke="white" stroke-width="2.5" stroke-linecap="round" stroke-linejoin="round"/>
</svg>
