<svg width="156" height="33" viewBox="0 0 156 33" fill="none" xmlns="http://www.w3.org/2000/svg">
<path d="M44.6066 17.2963C44.5396 17.0285 44.3388 16.8276 44.1379 16.6268C43.8032 16.359 43.4684 16.2251 42.9998 16.2251C42.0625 16.2251 41.5269 16.8276 41.5269 17.4971C41.5269 17.8319 41.6608 18.3675 42.665 18.7691L43.7362 19.1708C45.6778 19.9742 46.2133 21.0454 46.2133 22.2505C46.2133 24.259 44.8074 25.598 42.8659 25.598C41.6608 25.598 40.9244 25.1293 40.3888 24.5268C39.8532 23.9242 39.5854 23.1878 39.5184 22.5183L41.1252 22.1836C41.1252 22.7191 41.3261 23.1878 41.5939 23.5225C41.8617 23.9242 42.3303 24.1251 42.9328 24.1251C43.8701 24.1251 44.6735 23.3886 44.6735 22.3844C44.6735 21.3132 43.8701 20.9115 43.2006 20.5768L42.1964 20.1751C41.3261 19.8403 40.054 19.1039 40.054 17.4971C40.054 16.0912 41.1252 14.7522 43.1337 14.7522C44.2718 14.7522 44.8744 15.1539 45.2091 15.4886C45.4769 15.7564 45.8116 16.0912 46.0125 16.5598L44.6066 17.2963Z" fill="white"/>
<path d="M55.1846 16.4927H51.0337V19.1037H55.0507V20.6436H51.0337V23.9241H55.1846V25.3969H49.4269V14.9529H55.1846V16.4927Z" fill="white"/>
<path d="M63.2854 17.2963C63.2185 17.0285 63.0176 16.8276 62.8168 16.6268C62.482 16.359 62.1473 16.2251 61.6786 16.2251C60.7413 16.2251 60.2057 16.8276 60.2057 17.4971C60.2057 17.8319 60.3396 18.3675 61.3439 18.7691L62.4151 19.1708C64.3566 19.9742 64.8922 21.0454 64.8922 22.2505C64.8922 24.259 63.4862 25.598 61.5447 25.598C60.3396 25.598 59.6032 25.1293 59.0676 24.5268C58.532 23.9242 58.2642 23.1878 58.1973 22.5183L59.804 22.1836C59.804 22.7191 60.0049 23.1878 60.2727 23.5225C60.5405 23.9242 61.0091 24.1251 61.6117 24.1251C62.549 24.1251 63.3523 23.3886 63.3523 22.3844C63.3523 21.3132 62.549 20.9115 61.8795 20.5768L60.8752 20.1751C60.0049 19.8403 58.7329 19.1039 58.7329 17.4971C58.7329 16.0912 59.804 14.7522 61.8125 14.7522C62.9507 14.7522 63.5532 15.1539 63.8879 15.4886C64.1557 15.7564 64.4905 16.0912 64.6913 16.5598L63.2854 17.2963Z" fill="white"/>
<path d="M73.3277 21.3802L71.7879 17.8319L70.1811 21.3802H73.3277ZM73.9303 22.92H69.4447L68.3065 25.4641H66.5659L71.7879 14.4175L76.7421 25.4641H75.0014L73.9303 22.92Z" fill="white"/>
<path d="M78.6837 25.3971L80.893 14.2166L84.5082 22.3174L88.1904 14.2166L90.1989 25.3971H88.5252L87.454 19.1038L84.4413 25.8657L81.4286 19.1038L80.3574 25.3971H78.6837Z" fill="white"/>
<path d="M99.0362 16.4927H94.8854V19.1037H98.9693V20.6436H94.8854V23.9241H99.0362V25.3969H93.2786V14.9529H99.0362V16.4927Z" fill="white"/>
<path d="M103.187 14.9531L106.066 23.8573L109.815 14.4175L113.363 23.8573L116.644 14.9531H117.38L113.363 25.7988L109.815 16.2921L105.932 25.7988L102.384 14.9531H103.187Z" fill="white"/>
<path d="M123.941 21.38L122 16.4258L119.991 21.38H123.941ZM124.209 21.9826H119.79L118.385 25.397H117.648L122.067 14.6182L126.418 25.397H125.682L124.209 21.9826Z" fill="white"/>
<path d="M129.632 14.9529V24.7944H132.511V25.3969H128.963V14.9529H129.632Z" fill="white"/>
<path d="M135.457 14.9529V24.7944H138.402V25.3969H134.787V14.9529H135.457Z" fill="white"/>
<path d="M146.302 15.6224H141.951V19.3715H146.168V20.041H141.951V24.7944H146.302V25.3969H141.281V14.9529H146.302V15.6224Z" fill="white"/>
<path d="M152.328 15.6224V25.3969H151.591V15.6224H148.913V14.9529H155.006V15.6224H152.328Z" fill="white"/>
<path d="M4.10236 27.0709C3.56677 27.0709 3.03117 27.2717 2.62948 27.6734C2.22778 28.0751 2.02694 28.6107 2.02694 29.1463C2.02694 29.6819 2.22778 30.2175 2.62948 30.6192C3.03117 31.0209 3.56677 31.2217 4.10236 31.2217C4.63795 31.2217 5.17355 31.0209 5.57524 30.6192C6.37863 29.8158 6.37863 28.4768 5.57524 27.6065C5.17355 27.2717 4.63795 27.0709 4.10236 27.0709ZM4.10236 32.3598C3.23202 32.3598 2.42863 32.0251 1.89304 31.4226C1.2905 30.82 0.95575 30.0166 0.95575 29.2132C0.95575 28.3429 1.2905 27.5395 1.89304 27.0039C3.09812 25.7988 5.1066 25.7988 6.37863 27.0039C7.58372 28.209 7.58372 30.2175 6.37863 31.4895C5.77609 32.0251 4.9727 32.3598 4.10236 32.3598Z" fill="#DBAF00"/>
<path d="M5.50831 21.9157C4.97272 21.9157 4.43713 22.1165 4.03543 22.5182C3.23204 23.3216 3.23204 24.6606 4.03543 25.5309C4.83882 26.3343 6.1778 26.3343 7.04814 25.5309C7.44984 25.1292 7.65068 24.5936 7.65068 24.058C7.65068 23.5224 7.44984 22.9869 7.04814 22.5852C6.5795 22.1835 6.04391 21.9157 5.50831 21.9157ZM5.50831 27.2047C4.70492 27.2047 3.90153 26.8699 3.29899 26.2674C2.02696 25.0623 2.02696 23.0538 3.23204 21.7818C3.83458 21.1792 4.63797 20.8445 5.44136 20.8445C6.3117 20.8445 7.11509 21.1792 7.65068 21.7818C8.25323 22.3843 8.58797 23.1877 8.58797 23.9911C8.58797 24.8614 8.25323 25.6648 7.65068 26.2004C7.11509 26.9369 6.3117 27.2047 5.50831 27.2047Z" fill="#DBAF00"/>
<path d="M9.19047 25.6649C8.65487 25.6649 8.11928 25.8658 7.71759 26.2675C6.9142 27.0708 6.9142 28.4098 7.71759 29.2802C8.52098 30.0836 9.85996 30.0836 10.7303 29.2802C11.132 28.8785 11.3328 28.3429 11.3328 27.8073C11.3328 27.2717 11.132 26.7361 10.7303 26.3344C10.2617 25.8658 9.72606 25.6649 9.19047 25.6649ZM9.19047 30.9539C8.38708 30.9539 7.58369 30.6191 6.98114 30.0166C5.77606 28.8115 5.77606 26.803 6.98114 25.531C8.18623 24.3259 10.1947 24.3259 11.4667 25.531C12.0693 26.1336 12.404 26.9369 12.404 27.7403C12.404 28.6107 12.0693 29.4141 11.4667 29.9497C10.8642 30.6191 9.99386 30.9539 9.19047 30.9539Z" fill="#DBAF00"/>
<path d="M8.2532 25.5311C8.1193 25.5311 7.9854 25.4641 7.8515 25.3972C7.65065 25.1964 7.65065 24.8616 7.8515 24.6608L23.8523 8.65991C24.0532 8.45907 24.3879 8.45907 24.5888 8.65991C24.7896 8.86076 24.7896 9.19551 24.5888 9.39635L8.65489 25.3303C8.52099 25.4641 8.38709 25.5311 8.2532 25.5311Z" fill="#DBAF00"/>
<path d="M26.999 14.2167C26.8651 14.2167 26.7312 14.1497 26.5973 14.0828L22.8481 10.3336C22.6473 10.1328 22.6473 9.79802 22.8481 9.59717C23.049 9.39632 23.3837 9.39632 23.5846 9.59717L27.3337 13.3463C27.5346 13.5472 27.5346 13.8819 27.3337 14.0828C27.2668 14.2167 27.1329 14.2167 26.999 14.2167Z" fill="#DBAF00"/>
<path d="M23.1159 18.1666C22.982 18.1666 22.8481 18.0997 22.7142 18.0327L18.9651 14.2836C18.7642 14.0827 18.7642 13.748 18.9651 13.5471C19.1659 13.3463 19.5007 13.3463 19.7015 13.5471L23.4507 17.2963C23.6515 17.4971 23.6515 17.8319 23.4507 18.0327C23.3837 18.0997 23.2498 18.1666 23.1159 18.1666Z" fill="#DBAF00"/>
<path d="M22.3125 17.0286C22.1786 17.0286 22.0447 16.9616 21.9108 16.8947C21.71 16.6938 21.71 16.3591 21.9108 16.1582L25.5261 12.543C25.7269 12.3421 26.0617 12.3421 26.2625 12.543C26.4634 12.7438 26.4634 13.0786 26.2625 13.2794L22.6473 16.8947C22.5803 16.9616 22.4464 17.0286 22.3125 17.0286Z" fill="#DBAF00"/>
<path d="M24.9905 16.2251C24.8566 16.2251 24.7227 16.1581 24.5888 16.0912L20.9735 12.4759C20.7727 12.2751 20.7727 11.9404 20.9735 11.7395C21.1744 11.5387 21.5091 11.5387 21.71 11.7395L25.3252 15.3548C25.5261 15.5556 25.5261 15.8903 25.3252 16.0912C25.2583 16.1581 25.1244 16.2251 24.9905 16.2251Z" fill="#DBAF00"/>
<path d="M16.2871 7.58856C16.1532 7.58856 16.0193 7.52161 15.8854 7.45466L13.6091 5.11144C13.4083 4.91059 13.4083 4.57585 13.6091 4.375C13.81 4.17415 14.1447 4.17415 14.3456 4.375L16.6218 6.71822C16.8227 6.91907 16.8227 7.25381 16.6218 7.45466C16.5549 7.52161 16.421 7.58856 16.2871 7.58856Z" fill="#DBAF00"/>
<path d="M30.4803 21.7819C30.3464 21.7819 30.2125 21.715 30.0786 21.648L27.8024 19.3048C27.6015 19.104 27.6015 18.7692 27.8024 18.5684C28.0032 18.3675 28.338 18.3675 28.5388 18.5684L30.8151 20.9116C31.0159 21.1124 31.0159 21.4472 30.8151 21.648C30.7481 21.715 30.6142 21.7819 30.4803 21.7819Z" fill="#DBAF00"/>
<path d="M22.982 4.9776C22.7142 4.9776 22.5134 4.77675 22.4464 4.5759L21.777 1.36234C21.71 1.09455 21.9109 0.826751 22.1786 0.759802C22.4464 0.692853 22.7142 0.893699 22.7812 1.1615L23.4507 4.37506C23.5176 4.64285 23.3168 4.91065 23.049 4.9776C23.049 4.9776 23.049 4.9776 22.982 4.9776Z" fill="#DBAF00"/>
<path d="M30.2795 13.2793C30.0117 13.2793 29.7439 13.0785 29.7439 12.7437C29.7439 12.4759 29.9447 12.2081 30.2795 12.2081L33.56 12.0742C33.8278 12.0742 34.0956 12.2751 34.0956 12.6098C34.0956 12.8776 33.8947 13.1454 33.56 13.1454L30.2795 13.2793Z" fill="#DBAF00"/>
<path d="M21.8439 24.7276C21.5761 24.7276 21.3752 24.5268 21.3083 24.3259L20.6388 21.1123C20.5718 20.8445 20.7727 20.5768 21.0405 20.5098C21.3083 20.4429 21.5761 20.6437 21.643 20.9115L22.3125 24.1251C22.3794 24.3929 22.1786 24.6606 21.9108 24.7276C21.9108 24.7276 21.9108 24.7276 21.8439 24.7276Z" fill="#DBAF00"/>
<path d="M10.5964 13.3462C10.3286 13.3462 10.0609 13.1454 10.0609 12.8106C10.0609 12.5428 10.2617 12.275 10.5964 12.275L13.877 12.1411C14.1448 12.1411 14.4125 12.342 14.4125 12.6767C14.4125 12.9445 14.2117 13.2123 13.877 13.2123L10.5964 13.3462Z" fill="#DBAF00"/>
<path d="M28.8736 6.51749C28.7397 6.51749 28.6058 6.45054 28.4719 6.38359C28.271 6.18274 28.271 5.848 28.4719 5.64715L31.0829 3.03613C31.2837 2.83529 31.6185 2.83529 31.8193 3.03613C32.0202 3.23698 32.0202 3.57173 31.8193 3.77257L29.2083 6.31664C29.1414 6.45054 29.0075 6.51749 28.8736 6.51749Z" fill="#DBAF00"/>
</svg>
