<?xml version="1.0" encoding="UTF-8" standalone="no"?>
<svg
   width="156"
   height="33"
   viewBox="0 0 156 33"
   fill="none"
   version="1.1"
   id="svg56"
   sodipodi:docname="logo-sezame.svg"
   inkscape:version="1.2 (dc2aedaf03, 2022-05-15)"
   xmlns:inkscape="http://www.inkscape.org/namespaces/inkscape"
   xmlns:sodipodi="http://sodipodi.sourceforge.net/DTD/sodipodi-0.dtd"
   xmlns="http://www.w3.org/2000/svg"
   xmlns:svg="http://www.w3.org/2000/svg">
  <defs
     id="defs60" />
  <sodipodi:namedview
     id="namedview58"
     pagecolor="#ffffff"
     bordercolor="#666666"
     borderopacity="1.0"
     inkscape:showpageshadow="2"
     inkscape:pageopacity="0.0"
     inkscape:pagecheckerboard="0"
     inkscape:deskcolor="#d1d1d1"
     showgrid="false"
     inkscape:zoom="2.4407051"
     inkscape:cx="116.76953"
     inkscape:cy="-63.711096"
     inkscape:window-width="2219"
     inkscape:window-height="1234"
     inkscape:window-x="1529"
     inkscape:window-y="538"
     inkscape:window-maximized="0"
     inkscape:current-layer="svg56" />
  <g
     id="g857"
     transform="matrix(0.47291547,0,0,0.47291547,47.230681,-3.9098257)">
    <g
       id="g590"
       transform="matrix(1.3333333,0,0,-1.3333333,-68.473576,94.633344)">
      <text
         xml:space="preserve"
         style="font-style:normal;font-variant:normal;font-weight:normal;font-stretch:normal;font-size:25.1105px;line-height:1.25;font-family:'Futura PT';-inkscape-font-specification:'Futura PT, Normal';font-variant-ligatures:normal;font-variant-caps:normal;font-variant-numeric:normal;font-variant-east-asian:normal;fill:#000000;fill-opacity:1;stroke:none;stroke-width:0.784705"
         x="33.88847"
         y="-29.533152"
         id="text538"
         transform="scale(1,-1)"><tspan
           sodipodi:role="line"
           id="tspan536"
           style="font-style:normal;font-variant:normal;font-weight:normal;font-stretch:normal;font-size:25.1105px;font-family:'Futura PT';-inkscape-font-specification:'Futura PT, Normal';font-variant-ligatures:normal;font-variant-caps:normal;font-variant-numeric:normal;font-variant-east-asian:normal;fill:#ffffff;stroke-width:0.784705"
           x="33.88847"
           y="-29.533152">S</tspan></text>
      <text
         xml:space="preserve"
         style="font-style:normal;font-variant:normal;font-weight:normal;font-stretch:normal;font-size:25.1105px;line-height:1.25;font-family:'Futura PT';-inkscape-font-specification:'Futura PT, Normal';font-variant-ligatures:normal;font-variant-caps:normal;font-variant-numeric:normal;font-variant-east-asian:normal;fill:#000000;fill-opacity:1;stroke:none;stroke-width:0.784705"
         x="49.099079"
         y="-29.533152"
         id="text542"
         transform="scale(1,-1)"><tspan
           sodipodi:role="line"
           id="tspan540"
           style="font-style:normal;font-variant:normal;font-weight:normal;font-stretch:normal;font-size:25.1105px;font-family:'Futura PT';-inkscape-font-specification:'Futura PT, Normal';font-variant-ligatures:normal;font-variant-caps:normal;font-variant-numeric:normal;font-variant-east-asian:normal;fill:#ffffff;stroke-width:0.784705"
           x="49.099079"
           y="-29.533152">E</tspan></text>
      <text
         xml:space="preserve"
         style="font-style:normal;font-variant:normal;font-weight:normal;font-stretch:normal;font-size:25.1105px;line-height:1.25;font-family:'Futura PT';-inkscape-font-specification:'Futura PT, Normal';font-variant-ligatures:normal;font-variant-caps:normal;font-variant-numeric:normal;font-variant-east-asian:normal;fill:#000000;fill-opacity:1;stroke:none;stroke-width:0.784705"
         x="63.650085"
         y="-29.533152"
         id="text546"
         transform="scale(1,-1)"><tspan
           sodipodi:role="line"
           id="tspan544"
           style="font-style:normal;font-variant:normal;font-weight:normal;font-stretch:normal;font-size:25.1105px;font-family:'Futura PT';-inkscape-font-specification:'Futura PT, Normal';font-variant-ligatures:normal;font-variant-caps:normal;font-variant-numeric:normal;font-variant-east-asian:normal;fill:#ffffff;stroke-width:0.784705"
           x="63.650085"
           y="-29.533152">Z</tspan></text>
      <text
         xml:space="preserve"
         style="font-style:normal;font-variant:normal;font-weight:normal;font-stretch:normal;font-size:25.1105px;line-height:1.25;font-family:'Futura PT';-inkscape-font-specification:'Futura PT, Normal';font-variant-ligatures:normal;font-variant-caps:normal;font-variant-numeric:normal;font-variant-east-asian:normal;fill:#000000;fill-opacity:1;stroke:none;stroke-width:0.784705"
         x="78.849136"
         y="-29.533152"
         id="text550"
         transform="scale(1,-1)"><tspan
           sodipodi:role="line"
           id="tspan548"
           style="font-style:normal;font-variant:normal;font-weight:normal;font-stretch:normal;font-size:25.1105px;font-family:'Futura PT';-inkscape-font-specification:'Futura PT, Normal';font-variant-ligatures:normal;font-variant-caps:normal;font-variant-numeric:normal;font-variant-east-asian:normal;fill:#ffffff;stroke-width:0.784705"
           x="78.849136"
           y="-29.533152">A</tspan></text>
      <text
         xml:space="preserve"
         style="font-style:normal;font-variant:normal;font-weight:normal;font-stretch:normal;font-size:25.1105px;line-height:1.25;font-family:'Futura PT';-inkscape-font-specification:'Futura PT, Normal';font-variant-ligatures:normal;font-variant-caps:normal;font-variant-numeric:normal;font-variant-east-asian:normal;fill:#000000;fill-opacity:1;stroke:none;stroke-width:0.784705"
         x="96.272095"
         y="-29.533152"
         id="text554"
         transform="scale(1,-1)"><tspan
           sodipodi:role="line"
           id="tspan552"
           style="font-style:normal;font-variant:normal;font-weight:normal;font-stretch:normal;font-size:25.1105px;font-family:'Futura PT';-inkscape-font-specification:'Futura PT, Normal';font-variant-ligatures:normal;font-variant-caps:normal;font-variant-numeric:normal;font-variant-east-asian:normal;fill:#ffffff;stroke-width:0.784705"
           x="96.272095"
           y="-29.533152">M</tspan></text>
      <text
         xml:space="preserve"
         style="font-style:normal;font-variant:normal;font-weight:normal;font-stretch:normal;font-size:25.1105px;line-height:1.25;font-family:'Futura PT';-inkscape-font-specification:'Futura PT, Normal';font-variant-ligatures:normal;font-variant-caps:normal;font-variant-numeric:normal;font-variant-east-asian:normal;fill:#000000;fill-opacity:1;stroke:none;stroke-width:0.784705"
         x="119.32518"
         y="-29.533152"
         id="text558"
         transform="scale(1,-1)"><tspan
           sodipodi:role="line"
           id="tspan556"
           style="font-style:normal;font-variant:normal;font-weight:normal;font-stretch:normal;font-size:25.1105px;font-family:'Futura PT';-inkscape-font-specification:'Futura PT, Normal';font-variant-ligatures:normal;font-variant-caps:normal;font-variant-numeric:normal;font-variant-east-asian:normal;fill:#ffffff;stroke-width:0.784705"
           x="119.32518"
           y="-29.533152">E</tspan></text>
      <text
         xml:space="preserve"
         style="font-style:normal;font-variant:normal;font-weight:normal;font-stretch:normal;font-size:25.1105px;line-height:1.25;font-family:'Futura PT';-inkscape-font-specification:'Futura PT, Normal';font-variant-ligatures:normal;font-variant-caps:normal;font-variant-numeric:normal;font-variant-east-asian:normal;fill:#000000;fill-opacity:1;stroke:none;stroke-width:0.784705"
         x="135.43526"
         y="-29.395044"
         id="text564"
         transform="scale(1,-1)"><tspan
           sodipodi:role="line"
           id="tspan562"
           style="font-style:normal;font-variant:normal;font-weight:normal;font-stretch:normal;font-size:25.1105px;font-family:'Futura PT';-inkscape-font-specification:'Futura PT, Normal';font-variant-ligatures:normal;font-variant-caps:normal;font-variant-numeric:normal;font-variant-east-asian:normal;fill:#ffffff;stroke-width:0.784705"
           x="135.43526"
           y="-29.395044"><tspan
             style="font-style:normal;font-variant:normal;font-weight:300;font-stretch:normal;font-size:25.1105px;font-family:'Futura PT';-inkscape-font-specification:'Futura PT, Light';font-variant-ligatures:normal;font-variant-caps:normal;font-variant-numeric:normal;font-variant-east-asian:normal;stroke-width:0.784705"
             id="tspan560">WA</tspan></tspan></text>
      <text
         xml:space="preserve"
         style="font-style:normal;font-variant:normal;font-weight:normal;font-stretch:normal;font-size:25.1105px;line-height:1.25;font-family:'Futura PT';-inkscape-font-specification:'Futura PT, Normal';font-variant-ligatures:normal;font-variant-caps:normal;font-variant-numeric:normal;font-variant-east-asian:normal;fill:#000000;fill-opacity:1;stroke:none;stroke-width:0.784705"
         x="175.96994"
         y="-29.533152"
         id="text570"
         transform="scale(1,-1)"><tspan
           sodipodi:role="line"
           id="tspan568"
           style="font-style:normal;font-variant:normal;font-weight:normal;font-stretch:normal;font-size:25.1105px;font-family:'Futura PT';-inkscape-font-specification:'Futura PT, Normal';font-variant-ligatures:normal;font-variant-caps:normal;font-variant-numeric:normal;font-variant-east-asian:normal;fill:#ffffff;stroke-width:0.784705"
           x="175.96994"
           y="-29.533152"><tspan
             style="font-style:normal;font-variant:normal;font-weight:300;font-stretch:normal;font-size:25.1105px;font-family:'Futura PT';-inkscape-font-specification:'Futura PT, Light';font-variant-ligatures:normal;font-variant-caps:normal;font-variant-numeric:normal;font-variant-east-asian:normal;stroke-width:0.784705"
             id="tspan566">L</tspan></tspan></text>
      <text
         xml:space="preserve"
         style="font-style:normal;font-variant:normal;font-weight:normal;font-stretch:normal;font-size:25.1105px;line-height:1.25;font-family:'Futura PT';-inkscape-font-specification:'Futura PT, Normal';font-variant-ligatures:normal;font-variant-caps:normal;font-variant-numeric:normal;font-variant-east-asian:normal;fill:#000000;fill-opacity:1;stroke:none;stroke-width:0.784705"
         x="185.33585"
         y="-29.533152"
         id="text576"
         transform="scale(1,-1)"><tspan
           sodipodi:role="line"
           id="tspan574"
           style="font-style:normal;font-variant:normal;font-weight:normal;font-stretch:normal;font-size:25.1105px;font-family:'Futura PT';-inkscape-font-specification:'Futura PT, Normal';font-variant-ligatures:normal;font-variant-caps:normal;font-variant-numeric:normal;font-variant-east-asian:normal;fill:#ffffff;stroke-width:0.784705"
           x="185.33585"
           y="-29.533152"><tspan
             style="font-style:normal;font-variant:normal;font-weight:300;font-stretch:normal;font-size:25.1105px;font-family:'Futura PT';-inkscape-font-specification:'Futura PT, Light';font-variant-ligatures:normal;font-variant-caps:normal;font-variant-numeric:normal;font-variant-east-asian:normal;stroke-width:0.784705"
             id="tspan572">L</tspan></tspan></text>
      <text
         xml:space="preserve"
         style="font-style:normal;font-variant:normal;font-weight:normal;font-stretch:normal;font-size:25.1105px;line-height:1.25;font-family:'Futura PT';-inkscape-font-specification:'Futura PT, Normal';font-variant-ligatures:normal;font-variant-caps:normal;font-variant-numeric:normal;font-variant-east-asian:normal;fill:#000000;fill-opacity:1;stroke:none;stroke-width:0.784705"
         x="195.70178"
         y="-29.533152"
         id="text582"
         transform="scale(1,-1)"><tspan
           sodipodi:role="line"
           id="tspan580"
           style="font-style:normal;font-variant:normal;font-weight:normal;font-stretch:normal;font-size:25.1105px;font-family:'Futura PT';-inkscape-font-specification:'Futura PT, Normal';font-variant-ligatures:normal;font-variant-caps:normal;font-variant-numeric:normal;font-variant-east-asian:normal;fill:#ffffff;stroke-width:0.784705"
           x="195.70178"
           y="-29.533152"><tspan
             style="font-style:normal;font-variant:normal;font-weight:300;font-stretch:normal;font-size:25.1105px;font-family:'Futura PT';-inkscape-font-specification:'Futura PT, Light';font-variant-ligatures:normal;font-variant-caps:normal;font-variant-numeric:normal;font-variant-east-asian:normal;stroke-width:0.784705"
             id="tspan578">E</tspan></tspan></text>
      <text
         xml:space="preserve"
         style="font-style:normal;font-variant:normal;font-weight:normal;font-stretch:normal;font-size:25.1105px;line-height:1.25;font-family:'Futura PT';-inkscape-font-specification:'Futura PT, Normal';font-variant-ligatures:normal;font-variant-caps:normal;font-variant-numeric:normal;font-variant-east-asian:normal;fill:#000000;fill-opacity:1;stroke:none;stroke-width:0.784705"
         x="209.8295"
         y="-29.533152"
         id="text588"
         transform="scale(1,-1)"><tspan
           sodipodi:role="line"
           id="tspan586"
           style="font-style:normal;font-variant:normal;font-weight:normal;font-stretch:normal;font-size:25.1105px;font-family:'Futura PT';-inkscape-font-specification:'Futura PT, Normal';font-variant-ligatures:normal;font-variant-caps:normal;font-variant-numeric:normal;font-variant-east-asian:normal;fill:#ffffff;stroke-width:0.784705"
           x="209.8295"
           y="-29.533152"><tspan
             style="font-style:normal;font-variant:normal;font-weight:300;font-stretch:normal;font-size:25.1105px;font-family:'Futura PT';-inkscape-font-specification:'Futura PT, Light';font-variant-ligatures:normal;font-variant-caps:normal;font-variant-numeric:normal;font-variant-east-asian:normal;stroke-width:0.784705"
             id="tspan584">T</tspan></tspan></text>
    </g>
    <g
       id="g652"
       transform="matrix(1.3333333,0,0,-1.3333333,-235.10278,186.29386)">
      <g
         id="g594"
         transform="translate(110.1588,83.555)">
        <path
           d="m 0,0 c -1.264,0 -2.453,0.492 -3.347,1.387 -0.894,0.893 -1.386,2.082 -1.386,3.347 0,1.264 0.492,2.453 1.386,3.347 1.846,1.845 4.848,1.845 6.694,0 1.846,-1.846 1.846,-4.849 0,-6.694 C 2.453,0.492 1.265,0 0,0 M 0,7.888 C -0.808,7.888 -1.616,7.581 -2.232,6.965 -2.828,6.369 -3.156,5.577 -3.156,4.734 -3.156,3.89 -2.828,3.098 -2.232,2.502 -1.636,1.906 -0.843,1.577 0,1.577 c 0.843,0 1.636,0.329 2.232,0.925 v 0 c 1.23,1.23 1.23,3.233 0,4.463 C 1.616,7.581 0.808,7.888 0,7.888"
           style="fill:#dcb000;fill-opacity:1;fill-rule:nonzero;stroke:none"
           id="path592" />
      </g>
      <g
         id="g598"
         transform="translate(112.2094,91.1867)">
        <path
           d="m 0,0 c -1.213,0 -2.424,0.461 -3.347,1.384 -1.846,1.846 -1.846,4.849 0,6.694 C -2.453,8.972 -1.265,9.465 0,9.465 1.264,9.465 2.453,8.972 3.347,8.078 4.241,7.184 4.733,5.996 4.733,4.731 4.733,3.467 4.241,2.278 3.347,1.384 2.424,0.461 1.212,0 0,0 m 0,7.887 c -0.843,0 -1.636,-0.328 -2.232,-0.924 -1.23,-1.231 -1.23,-3.233 0,-4.463 1.231,-1.231 3.233,-1.231 4.464,0 0.596,0.595 0.924,1.388 0.924,2.231 0,0.843 -0.328,1.636 -0.924,2.232 C 1.636,7.559 0.843,7.887 0,7.887"
           style="fill:#dcb000;fill-opacity:1;fill-rule:nonzero;stroke:none"
           id="path596" />
      </g>
      <g
         id="g602"
         transform="translate(117.7881,85.6079)">
        <path
           d="m 0,0 c -1.212,0 -2.424,0.461 -3.347,1.384 -1.846,1.846 -1.846,4.848 0,6.694 1.846,1.846 4.848,1.846 6.694,0 C 4.241,7.184 4.733,5.996 4.733,4.731 4.733,3.467 4.241,2.278 3.347,1.384 v 0 C 2.424,0.461 1.212,0 0,0 m 0,7.886 c -0.808,0 -1.616,-0.308 -2.232,-0.923 -1.23,-1.23 -1.23,-3.233 0,-4.463 1.231,-1.231 3.233,-1.231 4.464,0 0.595,0.596 0.924,1.388 0.924,2.231 0,0.843 -0.328,1.636 -0.924,2.232 C 1.616,7.578 0.808,7.886 0,7.886 M 2.789,1.942 H 2.79 Z"
           style="fill:#dcb000;fill-opacity:1;fill-rule:nonzero;stroke:none"
           id="path600" />
      </g>
      <g
         id="g606"
         transform="translate(116.3557,93.7576)">
        <path
           d="m 0,0 c -0.202,0 -0.404,0.077 -0.558,0.231 -0.308,0.308 -0.308,0.808 0,1.115 l 23.93,23.931 c 0.308,0.307 0.808,0.307 1.115,0 0.309,-0.309 0.309,-0.808 0,-1.116 L 0.558,0.231 C 0.404,0.077 0.202,0 0,0"
           style="fill:#dcb000;fill-opacity:1;fill-rule:nonzero;stroke:none"
           id="path604" />
      </g>
      <g
         id="g610"
         transform="translate(144.3696,110.562)">
        <path
           d="m 0,0 c -0.202,0 -0.404,0.077 -0.558,0.231 l -5.561,5.562 c -0.308,0.307 -0.308,0.807 0,1.115 0.308,0.308 0.807,0.308 1.116,0 L 0.558,1.346 C 0.866,1.039 0.866,0.539 0.558,0.231 0.404,0.077 0.202,0 0,0"
           style="fill:#dcb000;fill-opacity:1;fill-rule:nonzero;stroke:none"
           id="path608" />
      </g>
      <g
         id="g614"
         transform="translate(138.5476,104.74)">
        <path
           d="m 0,0 c -0.202,0 -0.404,0.077 -0.558,0.231 l -5.561,5.562 c -0.308,0.307 -0.308,0.807 0,1.115 0.308,0.308 0.807,0.307 1.116,0 L 0.558,1.346 C 0.866,1.039 0.866,0.539 0.558,0.231 0.404,0.077 0.202,0 0,0"
           style="fill:#dcb000;fill-opacity:1;fill-rule:nonzero;stroke:none"
           id="path612" />
      </g>
      <g
         id="g618"
         transform="translate(137.3311,106.3911)">
        <path
           d="m 0,0 c -0.202,0 -0.404,0.077 -0.558,0.231 -0.308,0.308 -0.308,0.808 0,1.115 L 4.83,6.734 c 0.308,0.308 0.807,0.308 1.115,0 0.308,-0.308 0.308,-0.807 0,-1.115 L 0.558,0.231 C 0.404,0.077 0.202,0 0,0"
           style="fill:#dcb000;fill-opacity:1;fill-rule:nonzero;stroke:none"
           id="path616" />
      </g>
      <g
         id="g622"
         transform="translate(141.3925,107.6238)">
        <path
           d="m 0,0 c -0.202,0 -0.404,0.077 -0.558,0.231 l -5.391,5.391 c -0.308,0.308 -0.308,0.807 0,1.116 0.308,0.308 0.808,0.308 1.116,0 L 0.558,1.346 C 0.866,1.039 0.866,0.539 0.558,0.231 0.404,0.077 0.202,0 0,0"
           style="fill:#dcb000;fill-opacity:1;fill-rule:nonzero;stroke:none"
           id="path620" />
      </g>
      <g
         id="g626"
         transform="translate(128.3265,120.4995)">
        <path
           d="m 0,0 c -0.206,0 -0.412,0.081 -0.567,0.24 l -3.385,3.499 c -0.303,0.313 -0.295,0.813 0.018,1.115 0.313,0.303 0.813,0.295 1.116,-0.018 L 0.567,1.337 C 0.869,1.024 0.862,0.525 0.548,0.222 0.395,0.074 0.198,0 0,0"
           style="fill:#dcb000;fill-opacity:1;fill-rule:nonzero;stroke:none"
           id="path624" />
      </g>
      <g
         id="g630"
         transform="translate(149.5373,99.2886)">
        <path
           d="m 0,0 c -0.206,0 -0.412,0.08 -0.567,0.24 l -3.385,3.499 c -0.303,0.313 -0.295,0.813 0.018,1.115 0.313,0.303 0.813,0.295 1.116,-0.018 L 0.567,1.337 C 0.869,1.024 0.862,0.525 0.548,0.222 0.395,0.074 0.198,0 0,0"
           style="fill:#dcb000;fill-opacity:1;fill-rule:nonzero;stroke:none"
           id="path628" />
      </g>
      <g
         id="g634"
         transform="translate(138.3741,124.4044)">
        <path
           d="m 0,0 c -0.363,0 -0.69,0.253 -0.77,0.622 l -1.029,4.759 c -0.092,0.426 0.178,0.845 0.604,0.937 0.426,0.093 0.846,-0.178 0.937,-0.604 L 0.772,0.956 C 0.864,0.53 0.593,0.11 0.168,0.018 0.111,0.006 0.055,0 0,0"
           style="fill:#dcb000;fill-opacity:1;fill-rule:nonzero;stroke:none"
           id="path632" />
      </g>
      <g
         id="g638"
         transform="translate(149.2722,111.9826)">
        <path
           d="m 0,0 c -0.421,0 -0.77,0.332 -0.787,0.757 -0.018,0.435 0.32,0.802 0.755,0.82 L 4.833,1.776 C 5.267,1.79 5.635,1.455 5.653,1.02 5.671,0.585 5.333,0.218 4.897,0.2 L 0.033,0.001 C 0.022,0 0.011,0 0,0"
           style="fill:#dcb000;fill-opacity:1;fill-rule:nonzero;stroke:none"
           id="path636" />
      </g>
      <g
         id="g642"
         transform="translate(136.6748,94.9494)">
        <path
           d="m 0,0 c -0.363,0 -0.69,0.253 -0.77,0.622 l -1.029,4.759 c -0.092,0.426 0.178,0.845 0.604,0.937 0.426,0.093 0.846,-0.178 0.937,-0.604 L 0.772,0.956 C 0.864,0.53 0.593,0.11 0.168,0.018 0.111,0.006 0.055,0 0,0"
           style="fill:#dcb000;fill-opacity:1;fill-rule:nonzero;stroke:none"
           id="path640" />
      </g>
      <g
         id="g646"
         transform="translate(119.8837,111.931)">
        <path
           d="m 0,0 c -0.42,0 -0.77,0.332 -0.787,0.757 -0.018,0.435 0.32,0.802 0.755,0.82 L 4.833,1.776 C 5.268,1.793 5.635,1.455 5.653,1.02 5.671,0.585 5.333,0.217 4.897,0.2 L 0.033,0.001 C 0.022,0 0.011,0 0,0"
           style="fill:#dcb000;fill-opacity:1;fill-rule:nonzero;stroke:none"
           id="path644" />
      </g>
      <g
         id="g650"
         transform="translate(147.1474,122.1369)">
        <path
           d="m 0,0 c -0.202,0 -0.404,0.077 -0.558,0.231 -0.308,0.308 -0.308,0.808 0,1.116 L 3.306,5.21 c 0.307,0.308 0.807,0.308 1.115,0 0.308,-0.308 0.308,-0.807 0,-1.116 L 0.558,0.231 C 0.404,0.077 0.202,0 0,0"
           style="fill:#dcb000;fill-opacity:1;fill-rule:nonzero;stroke:none"
           id="path648" />
      </g>
    </g>
  </g>
</svg>
