<svg width="25" height="25" viewBox="0 0 25 25" fill="none" xmlns="http://www.w3.org/2000/svg">
<path fill-rule="evenodd" clip-rule="evenodd" d="M6.13599 6.60522H10.136V10.6052H6.13599V6.60522Z" stroke="white" stroke-width="1.5" stroke-linecap="round" stroke-linejoin="round"/>
<path fill-rule="evenodd" clip-rule="evenodd" d="M6.13599 14.6052H10.136V18.6052H6.13599V14.6052Z" stroke="white" stroke-width="1.5" stroke-linecap="round" stroke-linejoin="round"/>
<path fill-rule="evenodd" clip-rule="evenodd" d="M18.136 10.6052H14.136V6.60522L18.136 6.60522V10.6052Z" stroke="white" stroke-width="1.5" stroke-linecap="round" stroke-linejoin="round"/>
<path d="M16.1713 16.5699C16.1909 16.5894 16.1909 16.6211 16.1713 16.6406C16.1518 16.6601 16.1202 16.6601 16.1006 16.6406C16.0811 16.6211 16.0811 16.5894 16.1006 16.5699C16.1202 16.5503 16.1518 16.5503 16.1713 16.5699" stroke="white" stroke-width="1.5" stroke-linecap="round" stroke-linejoin="round"/>
<path d="M14.1713 14.5699C14.1909 14.5894 14.1909 14.6211 14.1713 14.6406C14.1518 14.6601 14.1202 14.6601 14.1006 14.6406C14.0811 14.6211 14.0811 14.5894 14.1006 14.5699C14.1202 14.5503 14.1518 14.5503 14.1713 14.5699" stroke="white" stroke-width="1.5" stroke-linecap="round" stroke-linejoin="round"/>
<path d="M14.1713 18.5699C14.1909 18.5894 14.1909 18.6211 14.1713 18.6406C14.1518 18.6601 14.1202 18.6601 14.1006 18.6406C14.0811 18.6211 14.0811 18.5894 14.1006 18.5699C14.1202 18.5503 14.1518 18.5503 14.1713 18.5699" stroke="white" stroke-width="1.5" stroke-linecap="round" stroke-linejoin="round"/>
<path d="M18.1713 18.5699C18.1909 18.5894 18.1909 18.6211 18.1713 18.6406C18.1518 18.6601 18.1202 18.6601 18.1006 18.6406C18.0811 18.6211 18.0811 18.5894 18.1006 18.5699C18.1202 18.5503 18.1518 18.5503 18.1713 18.5699" stroke="white" stroke-width="1.5" stroke-linecap="round" stroke-linejoin="round"/>
<path d="M21.636 8.58322V5.10522C21.636 4.00022 20.741 3.10522 19.636 3.10522H16.158" stroke="white" stroke-width="1.5" stroke-linecap="round" stroke-linejoin="round"/>
<path d="M8.11399 3.10522H4.63599C3.53099 3.10522 2.63599 4.00022 2.63599 5.10522V8.58322" stroke="white" stroke-width="1.5" stroke-linecap="round" stroke-linejoin="round"/>
<path d="M2.63599 16.6272V20.1052C2.63599 21.2102 3.53099 22.1052 4.63599 22.1052H8.11399" stroke="white" stroke-width="1.5" stroke-linecap="round" stroke-linejoin="round"/>
<path d="M16.158 22.1052H19.636C20.741 22.1052 21.636 21.2102 21.636 20.1052V16.6272" stroke="white" stroke-width="1.5" stroke-linecap="round" stroke-linejoin="round"/>
<path d="M18.1713 14.5699C18.1909 14.5894 18.1909 14.6211 18.1713 14.6406C18.1518 14.6601 18.1202 14.6601 18.1006 14.6406C18.0811 14.6211 18.0811 14.5894 18.1006 14.5699C18.1202 14.5503 18.1518 14.5503 18.1713 14.5699" stroke="white" stroke-width="1.5" stroke-linecap="round" stroke-linejoin="round"/>
</svg>
