<svg width="25" height="26" viewBox="0 0 25 26" fill="none" xmlns="http://www.w3.org/2000/svg">
<path fill-rule="evenodd" clip-rule="evenodd" d="M6.06534 22.0038H4.0645C3.51207 22.0036 3.06429 21.5558 3.06409 21.0034V15.0009C3.06429 14.4485 3.51207 14.0007 4.0645 14.0005H6.06534C6.61777 14.0007 7.06555 14.4485 7.06575 15.0009V21.0034C7.06555 21.5558 6.61777 22.0036 6.06534 22.0038V22.0038Z" stroke="white" stroke-width="1.5" stroke-linecap="round" stroke-linejoin="round"/>
<path d="M13.0683 18.0021H15.0291C15.4621 18.0023 15.8834 17.8619 16.2296 17.6019L18.6466 15.7892C19.2501 15.3369 20.0942 15.3971 20.6274 15.9302V15.9302C20.9118 16.2143 21.0716 16.5997 21.0716 17.0017C21.0716 17.4036 20.9118 17.7891 20.6274 18.0731L18.5536 20.147C17.9948 20.7055 17.2834 21.0863 16.5087 21.2414L13.5775 21.8277C12.9964 21.9439 12.3967 21.9296 11.8218 21.7857L9.17067 21.1234C8.85373 21.0435 8.52812 21.0032 8.20127 21.0033H7.0658" stroke="white" stroke-width="1.5" stroke-linecap="round" stroke-linejoin="round"/>
<path d="M13.0683 18.0022H14.5539C14.9559 18.0023 15.3415 17.8426 15.6257 17.5583C15.91 17.2741 16.0696 16.8885 16.0695 16.4865V16.1834C16.0697 15.4882 15.5965 14.8822 14.9221 14.7138L12.6291 14.1405C12.2564 14.0475 11.8738 14.0005 11.4896 14.0005V14.0005C10.562 14.0002 9.65513 14.2749 8.88355 14.7898L7.0658 16.0013" stroke="white" stroke-width="1.5" stroke-linecap="round" stroke-linejoin="round"/>
<path d="M19.3386 7.7301C20.3154 8.70682 20.3154 10.2904 19.3386 11.2671C18.3619 12.2438 16.7783 12.2438 15.8016 11.2671C14.8249 10.2904 14.8249 8.70682 15.8016 7.7301C16.2707 7.26106 16.9068 6.99756 17.5701 6.99756C18.2335 6.99756 18.8696 7.26106 19.3386 7.7301" stroke="white" stroke-width="1.5" stroke-linecap="round" stroke-linejoin="round"/>
<path fill-rule="evenodd" clip-rule="evenodd" d="M6.99922 7.04482C6.4207 6.4663 6.4207 5.52833 6.99922 4.94981L8.51934 3.4297C9.09786 2.85118 10.0358 2.85118 10.6143 3.4297L12.1345 4.94981C12.713 5.52833 12.713 6.4663 12.1345 7.04482L10.6143 8.56493C10.0358 9.14345 9.09786 9.14345 8.51934 8.56493L6.99922 7.04482Z" stroke="white" stroke-width="1.5" stroke-linecap="round" stroke-linejoin="round"/>
</svg>
