<svg width="25" height="26" viewBox="0 0 25 26" fill="none" xmlns="http://www.w3.org/2000/svg">
<path d="M13.1412 9.99878C13.1412 11.1042 10.9022 11.9996 8.14008 11.9996C5.37693 11.9996 3.138 11.1042 3.138 9.99878" stroke="white" stroke-width="1.5" stroke-linecap="round" stroke-linejoin="round"/>
<path d="M8.13908 16.0013C5.37693 16.0013 3.138 15.1059 3.138 14.0005" stroke="white" stroke-width="1.5" stroke-linecap="round" stroke-linejoin="round"/>
<path d="M13.1402 5.99731H13.1412V11.9998" stroke="white" stroke-width="1.5" stroke-linecap="round" stroke-linejoin="round"/>
<path d="M21.1415 16.0013C21.1435 14.8959 18.9026 14.0005 16.1414 14.0005C13.3803 14.0005 11.1393 14.8959 11.1403 16.0013C11.1403 17.1068 13.3793 18.0022 16.1424 18.0022C18.9056 18.0022 21.1445 17.1068 21.1445 16.0013" stroke="white" stroke-width="1.5" stroke-linecap="round" stroke-linejoin="round"/>
<path d="M21.1435 16.0015V20.0031C21.1435 21.1086 18.9046 22.004 16.1424 22.004C13.3793 22.004 11.1403 21.1086 11.1403 20.0031V16.0015" stroke="white" stroke-width="1.5" stroke-linecap="round" stroke-linejoin="round"/>
<path d="M8.13908 20.003C5.37693 20.003 3.13699 19.1077 3.13699 18.0022" stroke="white" stroke-width="1.5" stroke-linecap="round" stroke-linejoin="round"/>
<ellipse cx="8.13908" cy="5.99717" rx="5.00208" ry="2.00083" stroke="white" stroke-width="1.5" stroke-linecap="round" stroke-linejoin="round"/>
<path d="M3.13699 5.99731V18.0023" stroke="white" stroke-width="1.5" stroke-linecap="round" stroke-linejoin="round"/>
<path d="M18.1433 9.99951L18.1433 4.99743" stroke="white" stroke-width="1.5" stroke-linecap="round" stroke-linejoin="round"/>
<path d="M16.1425 7.99868L18.1433 9.99951L20.1442 7.99868" stroke="white" stroke-width="1.5" stroke-linecap="round" stroke-linejoin="round"/>
</svg>
