<svg width="25" height="25" viewBox="0 0 25 25" fill="none" xmlns="http://www.w3.org/2000/svg">
<path fill-rule="evenodd" clip-rule="evenodd" d="M15.9711 19.6146V11.0741C15.9711 10.6493 15.8024 10.2419 15.5019 9.94161L13.239 7.67867C12.9387 7.37819 12.5313 7.20947 12.1065 7.20947H6.5672C5.68318 7.20947 4.96654 7.92612 4.96654 8.81014V19.6146C4.96654 20.4987 5.68318 21.2153 6.5672 21.2153H14.3705C15.2545 21.2153 15.9711 20.4987 15.9711 19.6146V19.6146Z" stroke="#CFCFCF" stroke-width="1.5" stroke-linecap="round" stroke-linejoin="round"/>
<path d="M15.9711 17.2136H19.3725C20.2566 17.2136 20.9732 16.497 20.9732 15.6129V5.2086C20.9732 4.10357 20.0774 3.20776 18.9724 3.20776H11.5693C10.6853 3.20776 9.96863 3.92441 9.96863 4.80843V7.20943" stroke="#CFCFCF" stroke-width="1.5" stroke-linecap="round" stroke-linejoin="round"/>
<path d="M15.9711 11.2111H12.7698C12.3278 11.2111 11.9695 10.8528 11.9695 10.4108V7.20947" stroke="#CFCFCF" stroke-width="1.5" stroke-linecap="round" stroke-linejoin="round"/>
</svg>
