<svg width="25" height="25" viewBox="0 0 25 25" fill="none" xmlns="http://www.w3.org/2000/svg">
<path fill-rule="evenodd" clip-rule="evenodd" d="M6.06537 21.5038H4.06453C3.5121 21.5036 3.06432 21.0558 3.06412 20.5034V14.5009C3.06432 13.9485 3.5121 13.5007 4.06453 13.5005H6.06537C6.6178 13.5007 7.06559 13.9485 7.06578 14.5009V20.5034C7.06559 21.0558 6.6178 21.5036 6.06537 21.5038V21.5038Z" stroke="white" stroke-width="1.5" stroke-linecap="round" stroke-linejoin="round"/>
<path d="M13.0683 17.5021H15.0291C15.4621 17.5023 15.8834 17.3619 16.2296 17.1019L18.6466 15.2892C19.2501 14.8369 20.0942 14.8971 20.6274 15.4302V15.4302C20.9118 15.7143 21.0716 16.0997 21.0716 16.5017C21.0716 16.9036 20.9118 17.2891 20.6274 17.5731L18.5536 19.647C17.9948 20.2055 17.2834 20.5863 16.5087 20.7414L13.5775 21.3277C12.9964 21.4439 12.3967 21.4296 11.8218 21.2857L9.17067 20.6234C8.85373 20.5435 8.52812 20.5032 8.20127 20.5033H7.0658" stroke="white" stroke-width="1.5" stroke-linecap="round" stroke-linejoin="round"/>
<path d="M13.0683 17.5022H14.5539C14.9559 17.5023 15.3415 17.3426 15.6257 17.0583C15.91 16.7741 16.0696 16.3885 16.0695 15.9865V15.6834C16.0697 14.9882 15.5965 14.3822 14.9221 14.2138L12.6291 13.6405C12.2564 13.5475 11.8738 13.5005 11.4896 13.5005V13.5005C10.562 13.5002 9.65513 13.7749 8.88355 14.2898L7.0658 15.5013" stroke="white" stroke-width="1.5" stroke-linecap="round" stroke-linejoin="round"/>
<path d="M19.3387 7.2301C20.3154 8.20682 20.3154 9.79039 19.3387 10.7671C18.3619 11.7438 16.7784 11.7438 15.8017 10.7671C14.8249 9.79039 14.8249 8.20682 15.8017 7.2301C16.2707 6.76106 16.9068 6.49756 17.5702 6.49756C18.2335 6.49756 18.8696 6.76106 19.3387 7.2301" stroke="white" stroke-width="1.5" stroke-linecap="round" stroke-linejoin="round"/>
<path fill-rule="evenodd" clip-rule="evenodd" d="M6.99919 6.54457C6.42067 5.96605 6.42067 5.02809 6.99919 4.44957L8.51931 2.92945C9.09783 2.35093 10.0358 2.35093 10.6143 2.92945L12.1344 4.44957C12.7129 5.02809 12.7129 5.96605 12.1344 6.54457L10.6143 8.06469C10.0358 8.64321 9.09783 8.64321 8.51931 8.06469L6.99919 6.54457Z" stroke="white" stroke-width="1.5" stroke-linecap="round" stroke-linejoin="round"/>
</svg>
