<svg width="25" height="26" viewBox="0 0 25 26" fill="none" xmlns="http://www.w3.org/2000/svg">
<ellipse cx="9.15683" cy="10.9991" rx="6.0025" ry="2.50104" stroke="white" stroke-width="1.5" stroke-linecap="round" stroke-linejoin="round"/>
<path d="M15.1593 14.5005C15.1593 15.8818 12.4719 17.0015 9.15683 17.0015C5.84174 17.0015 3.15433 15.8818 3.15433 14.5005" stroke="white" stroke-width="1.5" stroke-linecap="round" stroke-linejoin="round"/>
<path d="M21.1618 10.999C21.1618 12.3803 18.4744 13.5001 15.1593 13.5001" stroke="white" stroke-width="1.5" stroke-linecap="round" stroke-linejoin="round"/>
<path d="M15.1593 10.999V18.5021C15.1593 19.8834 12.4719 21.0032 9.15683 21.0032C5.84174 21.0032 3.15433 19.8834 3.15433 18.5021V10.999" stroke="white" stroke-width="1.5" stroke-linecap="round" stroke-linejoin="round"/>
<path d="M21.1618 7.49756V15.0007C21.1618 16.382 18.4744 17.5017 15.1593 17.5017" stroke="white" stroke-width="1.5" stroke-linecap="round" stroke-linejoin="round"/>
<path d="M9.65704 8.50804C9.36005 8.25311 9.17948 7.88837 9.15683 7.49762C9.15683 6.11705 11.848 4.99658 15.1593 4.99658C18.4707 4.99658 21.1618 6.11705 21.1618 7.49762C21.1618 8.8782 18.4707 9.99867 15.1593 9.99867C14.9893 9.99867 14.8192 9.99867 14.6591 9.98866" stroke="white" stroke-width="1.5" stroke-linecap="round" stroke-linejoin="round"/>
</svg>
