<svg width="33" height="32" viewBox="0 0 33 32" fill="none" xmlns="http://www.w3.org/2000/svg">
<path d="M3.36466 26.2304C2.84369 26.2304 2.32272 26.4258 1.93199 26.8165C1.54126 27.2072 1.3459 27.7282 1.3459 28.2492C1.3459 28.7701 1.54126 29.2911 1.93199 29.6818C2.32272 30.0726 2.84369 30.2679 3.36466 30.2679C3.88563 30.2679 4.4066 30.0726 4.79733 29.6818C5.57879 28.9004 5.57879 27.5979 4.79733 26.7514C4.4066 26.4258 3.88563 26.2304 3.36466 26.2304ZM3.36466 31.375C2.51808 31.375 1.73663 31.0494 1.21565 30.4633C0.629562 29.8772 0.303955 29.0957 0.303955 28.3143C0.303955 27.4677 0.629562 26.6862 1.21565 26.1653C2.38784 24.9931 4.34148 24.9931 5.57879 26.1653C6.75097 27.3375 6.75097 29.2911 5.57879 30.5284C4.9927 31.0494 4.21124 31.375 3.36466 31.375Z" fill="#DBAF00"/>
<path d="M4.7322 21.216C4.21123 21.216 3.69026 21.4114 3.29953 21.8021C2.51808 22.5836 2.51808 23.886 3.29953 24.7326C4.08099 25.514 5.38342 25.514 6.23 24.7326C6.62072 24.3418 6.81609 23.8209 6.81609 23.2999C6.81609 22.7789 6.62072 22.258 6.23 21.8672C5.77415 21.4765 5.25318 21.216 4.7322 21.216ZM4.7322 26.3606C3.95075 26.3606 3.16929 26.035 2.5832 25.4489C1.34589 24.2767 1.34589 22.3231 2.51808 21.0858C3.10417 20.4997 3.88563 20.1741 4.66708 20.1741C5.51366 20.1741 6.29512 20.4997 6.81609 21.0858C7.40218 21.6719 7.72779 22.4533 7.72779 23.2348C7.72779 24.0814 7.40218 24.8628 6.81609 25.3838C6.29512 26.1001 5.51366 26.3606 4.7322 26.3606Z" fill="#DBAF00"/>
<path d="M8.31391 24.8629C7.79294 24.8629 7.27197 25.0583 6.88124 25.449C6.09978 26.2304 6.09978 27.5329 6.88124 28.3795C7.6627 29.1609 8.96513 29.1609 9.8117 28.3795C10.2024 27.9887 10.3978 27.4678 10.3978 26.9468C10.3978 26.4258 10.2024 25.9048 9.8117 25.5141C9.35585 25.0583 8.83488 24.8629 8.31391 24.8629ZM8.31391 30.0075C7.53246 30.0075 6.751 29.6819 6.16491 29.0958C4.99272 27.9236 4.99272 25.97 6.16491 24.7327C7.33709 23.5605 9.29073 23.5605 10.528 24.7327C11.1141 25.3187 11.4397 26.1002 11.4397 26.8817C11.4397 27.7282 11.1141 28.5097 10.528 29.0307C9.94195 29.6819 9.09537 30.0075 8.31391 30.0075Z" fill="#DBAF00"/>
<path d="M7.40218 24.7324C7.27194 24.7324 7.1417 24.6673 7.01145 24.6022C6.81609 24.4068 6.81609 24.0812 7.01145 23.8858L22.5755 8.32182C22.7708 8.12645 23.0964 8.12645 23.2918 8.32182C23.4872 8.51718 23.4872 8.84279 23.2918 9.03815L7.79291 24.537C7.66267 24.6673 7.53242 24.7324 7.40218 24.7324Z" fill="#DBAF00"/>
<path d="M25.6361 13.7271C25.5059 13.7271 25.3757 13.6619 25.2454 13.5968L21.5986 9.95002C21.4032 9.75465 21.4032 9.42905 21.5986 9.23368C21.794 9.03832 22.1196 9.03832 22.3149 9.23368L25.9617 12.8805C26.1571 13.0758 26.1571 13.4015 25.9617 13.5968C25.8966 13.7271 25.7664 13.7271 25.6361 13.7271Z" fill="#DBAF00"/>
<path d="M21.8592 17.5691C21.7289 17.5691 21.5987 17.504 21.4684 17.4389L17.8216 13.7921C17.6263 13.5967 17.6263 13.2711 17.8216 13.0757C18.017 12.8804 18.3426 12.8804 18.538 13.0757L22.1848 16.7225C22.3801 16.9179 22.3801 17.2435 22.1848 17.4389C22.1196 17.504 21.9894 17.5691 21.8592 17.5691Z" fill="#DBAF00"/>
<path d="M21.0777 16.4621C20.9475 16.4621 20.8172 16.3969 20.687 16.3318C20.4916 16.1364 20.4916 15.8108 20.687 15.6155L24.2035 12.0989C24.3989 11.9036 24.7245 11.9036 24.9199 12.0989C25.1152 12.2943 25.1152 12.6199 24.9199 12.8153L21.4033 16.3318C21.3382 16.3969 21.208 16.4621 21.0777 16.4621Z" fill="#DBAF00"/>
<path d="M23.6825 15.6806C23.5523 15.6806 23.422 15.6154 23.2918 15.5503L19.7752 12.0338C19.5799 11.8384 19.5799 11.5128 19.7752 11.3174C19.9706 11.1221 20.2962 11.1221 20.4916 11.3174L24.0081 14.834C24.2035 15.0293 24.2035 15.3549 24.0081 15.5503C23.943 15.6154 23.8128 15.6806 23.6825 15.6806Z" fill="#DBAF00"/>
<path d="M15.2168 7.27992C15.0865 7.27992 14.9563 7.2148 14.826 7.14968L12.6119 4.87043C12.4166 4.67506 12.4166 4.34946 12.6119 4.15409C12.8073 3.95873 13.1329 3.95873 13.3283 4.15409L15.5424 6.43334C15.7377 6.6287 15.7377 6.95431 15.5424 7.14968C15.4773 7.2148 15.347 7.27992 15.2168 7.27992Z" fill="#DBAF00"/>
<path d="M29.0225 21.0858C28.8923 21.0858 28.762 21.0207 28.6318 20.9556L26.4176 18.6763C26.2223 18.481 26.2223 18.1554 26.4176 17.96C26.613 17.7646 26.9386 17.7646 27.134 17.96L29.3481 20.2392C29.5435 20.4346 29.5435 20.7602 29.3481 20.9556C29.283 21.0207 29.1527 21.0858 29.0225 21.0858Z" fill="#DBAF00"/>
<path d="M21.7289 4.74027C21.4684 4.74027 21.273 4.54491 21.2079 4.34954L20.5567 1.22371C20.4916 0.963228 20.6869 0.702743 20.9474 0.637622C21.2079 0.5725 21.4684 0.767863 21.5335 1.02835L22.1847 4.15418C22.2498 4.41466 22.0545 4.67515 21.794 4.74027C21.794 4.74027 21.794 4.74027 21.7289 4.74027Z" fill="#DBAF00"/>
<path d="M28.8271 12.8153C28.5666 12.8153 28.3062 12.6199 28.3062 12.2943C28.3062 12.0338 28.5015 11.7733 28.8271 11.7733L32.0181 11.6431C32.2786 11.6431 32.539 11.8384 32.539 12.164C32.539 12.4245 32.3437 12.685 32.0181 12.685L28.8271 12.8153Z" fill="#DBAF00"/>
<path d="M20.6218 23.951C20.3613 23.951 20.166 23.7556 20.1008 23.5602L19.4496 20.4344C19.3845 20.1739 19.5799 19.9134 19.8404 19.8483C20.1008 19.7832 20.3613 19.9786 20.4265 20.239L21.0777 23.3649C21.1428 23.6254 20.9474 23.8858 20.6869 23.951C20.6869 23.951 20.6869 23.951 20.6218 23.951Z" fill="#DBAF00"/>
<path d="M9.68143 12.8804C9.42095 12.8804 9.16046 12.6851 9.16046 12.3595C9.16046 12.099 9.35583 11.8385 9.68143 11.8385L12.8724 11.7083C13.1329 11.7083 13.3934 11.9036 13.3934 12.2292C13.3934 12.4897 13.198 12.7502 12.8724 12.7502L9.68143 12.8804Z" fill="#DBAF00"/>
<path d="M27.4596 6.23791C27.3293 6.23791 27.1991 6.17279 27.0688 6.10767C26.8735 5.91231 26.8735 5.5867 27.0688 5.39134L29.6086 2.8516C29.8039 2.65624 30.1295 2.65624 30.3249 2.8516C30.5203 3.04697 30.5203 3.37257 30.3249 3.56794L27.7852 6.04255C27.72 6.17279 27.5898 6.23791 27.4596 6.23791Z" fill="#DBAF00"/>
</svg>
