<svg width="25" height="25" viewBox="0 0 25 25" fill="none" xmlns="http://www.w3.org/2000/svg">
<path d="M19.0278 5.74126C22.5425 9.25598 22.5425 14.9545 19.0278 18.4692C15.513 21.9839 9.81456 21.9839 6.29986 18.4692C2.78514 14.9544 2.78514 9.25596 6.29986 5.74126C9.81458 2.22654 15.5131 2.22654 19.0278 5.74126" stroke="white" stroke-width="1.5" stroke-linecap="round" stroke-linejoin="round"/>
<path d="M17.9708 19.3622C17.5868 17.5222 15.3688 16.1052 12.6638 16.1052C9.95881 16.1052 7.74081 17.5222 7.35681 19.3622" stroke="white" stroke-width="1.5" stroke-linecap="round" stroke-linejoin="round"/>
<path d="M14.7851 7.9839C15.9567 9.15547 15.9567 11.055 14.7851 12.2265C13.6136 13.3981 11.7141 13.3981 10.5425 12.2265C9.37093 11.055 9.37093 9.15547 10.5425 7.9839C11.7141 6.81233 13.6136 6.81233 14.7851 7.9839" stroke="white" stroke-width="1.5" stroke-linecap="round" stroke-linejoin="round"/>
</svg>
