<svg width="25" height="25" viewBox="0 0 25 25" fill="none" xmlns="http://www.w3.org/2000/svg">
<path d="M13.0054 9.71313C13.0054 10.8186 10.7665 11.714 8.00434 11.714C5.24119 11.714 3.00226 10.8186 3.00226 9.71313" stroke="white" stroke-width="1.5" stroke-linecap="round" stroke-linejoin="round"/>
<path d="M8.00334 15.7157C5.24119 15.7157 3.00226 14.8203 3.00226 13.7148" stroke="white" stroke-width="1.5" stroke-linecap="round" stroke-linejoin="round"/>
<path d="M13.0044 5.71167H13.0054V11.7142" stroke="white" stroke-width="1.5" stroke-linecap="round" stroke-linejoin="round"/>
<path d="M21.0058 15.7157C21.0078 14.6102 18.7668 13.7148 16.0057 13.7148C13.2445 13.7148 11.0036 14.6102 11.0046 15.7157C11.0046 16.8211 13.2435 17.7165 16.0067 17.7165C18.7698 17.7165 21.0088 16.8211 21.0088 15.7157" stroke="white" stroke-width="1.5" stroke-linecap="round" stroke-linejoin="round"/>
<path d="M21.0078 15.7158V19.7175C21.0078 20.8229 18.7688 21.7183 16.0067 21.7183C13.2435 21.7183 11.0046 20.8229 11.0046 19.7175V15.7158" stroke="white" stroke-width="1.5" stroke-linecap="round" stroke-linejoin="round"/>
<path d="M8.00335 19.7174C5.2412 19.7174 3.00127 18.822 3.00127 17.7166" stroke="white" stroke-width="1.5" stroke-linecap="round" stroke-linejoin="round"/>
<ellipse cx="8.00335" cy="5.71153" rx="5.00208" ry="2.00083" stroke="white" stroke-width="1.5" stroke-linecap="round" stroke-linejoin="round"/>
<path d="M3.00126 5.71167V17.7167" stroke="white" stroke-width="1.5" stroke-linecap="round" stroke-linejoin="round"/>
<path d="M18.0075 9.71362L18.0075 4.71154" stroke="white" stroke-width="1.5" stroke-linecap="round" stroke-linejoin="round"/>
<path d="M16.0066 7.71279L18.0075 9.71362L20.0083 7.71279" stroke="white" stroke-width="1.5" stroke-linecap="round" stroke-linejoin="round"/>
</svg>
